<svg id="svg" version="1.1" xmlns="http://www.w3.org/2000/svg" style="display: block;" viewBox="0 0 512 512"><path d="M0 0 C168.96 0 337.92 0 512 0 C512 168.96 512 337.92 512 512 C343.04 512 174.08 512 0 512 C0 343.04 0 174.08 0 0 Z " transform="translate(0,0)" style="fill: #A772F1;"/><path d="M0 0 C76.89 0 153.78 0 233 0 C233 168.96 233 337.92 233 512 C64.04 512 -104.92 512 -279 512 C-279 435.11 -279 358.22 -279 279 C-278.67 279 -278.34 279 -278 279 C-277.91024902 279.72251953 -277.82049805 280.44503906 -277.72802734 281.18945312 C-271.10207765 333.43791321 -252.71481269 381.7769329 -218 422 C-217.34257812 422.76828125 -216.68515625 423.5365625 -216.0078125 424.328125 C-205.66646846 436.11335482 -194.51451562 447.52720693 -182 457 C-181.46117187 457.41523926 -180.92234375 457.83047852 -180.3671875 458.25830078 C-170.37070531 465.94337664 -159.90989551 472.68728061 -149 479 C-147.98413818 479.59143799 -147.98413818 479.59143799 -146.94775391 480.19482422 C-126.93367469 491.70647881 -105.20008171 498.99610416 -83 505 C-77.555 506.485 -77.555 506.485 -72 508 C-72 479.95 -72 451.9 -72 423 C-69.03 422.01 -66.06 421.02 -63 420 C-56.68794921 416.47981783 -52.28437381 411.95375464 -50 405 C-49.09256082 397.62586267 -49.31918469 391.183939 -53.4609375 384.8671875 C-58.632488 378.59307294 -63.93699618 377.41890115 -72 375 C-72 354.54 -72 334.08 -72 313 C-26.79 313 18.42 313 65 313 C60.72096743 296.95362788 56.92487658 285.08018643 42.84765625 275.95703125 C34.95403097 271.48981041 27.95715882 268.645228 18.8125 269.18359375 C-1.73060234 270.26293791 -16.82163268 261.07952611 -34 251 C-34.23450425 246.85513745 -34.37513599 242.71199849 -34.5 238.5625 C-34.56703125 237.39783203 -34.6340625 236.23316406 -34.703125 235.03320312 C-34.84665161 228.66420975 -34.55290936 224.8168101 -30.19140625 219.9765625 C-28.80565166 218.63914818 -27.4098607 217.31197777 -26 216 C-19.91973596 207.78187375 -14.84421153 198.15218047 -11.06640625 188.65234375 C-10 187 -10 187 -8.046875 186.3125 C-7.28890625 186.209375 -6.5309375 186.10625 -5.75 186 C-1.35887277 185.18107595 1.54314058 183.96302236 5 181 C11.1020892 171.95207464 10.06563241 156.49326401 9 146 C7.46114233 140.58083312 5.44583153 137.90023473 0.6875 134.9375 C-0.199375 134.628125 -1.08625 134.31875 -2 134 C-2.103125 135.216875 -2.20625 136.43375 -2.3125 137.6875 C-2.53704684 139.45892507 -2.76674283 141.22970083 -3 143 C-3.09152344 144.00160156 -3.18304688 145.00320312 -3.27734375 146.03515625 C-4.85835576 156.78865118 -11.15861046 162.16535091 -19 169 C-20.91025342 166.13461987 -21.32591446 165.08244301 -21.77783203 161.83911133 C-21.89780548 161.00426712 -22.01777893 160.16942291 -22.14138794 159.3092804 C-22.26230804 158.40928818 -22.38322815 157.50929596 -22.5078125 156.58203125 C-22.63815887 155.65081955 -22.76850525 154.71960785 -22.90280151 153.76017761 C-23.17705229 151.78781809 -23.44747121 149.81492254 -23.71435547 147.84155273 C-24.12124924 144.84016685 -24.54206211 141.84098123 -24.96484375 138.84179688 C-25.23000467 136.92199056 -25.49435346 135.00207186 -25.7578125 133.08203125 C-25.88278107 132.19216019 -26.00774963 131.30228912 -26.13650513 130.38545227 C-26.82887975 125.20429768 -27.12042906 120.22730269 -27 115 C-27.81082031 115.13277344 -28.62164062 115.26554687 -29.45703125 115.40234375 C-31.11798828 115.66724609 -31.11798828 115.66724609 -32.8125 115.9375 C-34.43091797 116.19853516 -34.43091797 116.19853516 -36.08203125 116.46484375 C-47.78757249 118.06370631 -59.39103941 118.23649785 -71.1875 118.25 C-72.11576599 118.25233643 -73.04403198 118.25467285 -74.00042725 118.25708008 C-88.55069298 118.27090128 -102.63604017 117.49807997 -117 115 C-116.98558868 115.61025528 -116.97117737 116.22051056 -116.95632935 116.84925842 C-116.87575692 122.89685927 -117.32524701 128.64900984 -118.2421875 134.62109375 C-118.43483688 135.9209597 -118.43483688 135.9209597 -118.63137817 137.24708557 C-118.90184835 139.05841396 -119.17596192 140.86920184 -119.45361328 142.67944336 C-119.87742298 145.45335884 -120.2850855 148.22933422 -120.69140625 151.00585938 C-120.95737522 152.77358192 -121.22426897 154.54116563 -121.4921875 156.30859375 C-121.6131076 157.13669052 -121.73402771 157.96478729 -121.85861206 158.81797791 C-122.43171009 162.48817696 -122.9113809 164.86707134 -125 168 C-133.88933857 162.22324882 -138.45412096 156.64677043 -141.01123047 146.19873047 C-142.1436047 140.81677207 -143.15290834 135.43415492 -144 130 C-144.20367187 128.77925781 -144.40734375 127.55851562 -144.6171875 126.30078125 C-146.72460653 108.1296682 -144.63413788 91.81310534 -133 77 C-125.9397103 68.65393396 -118.09320263 62.29010537 -108 58 C-107.16218994 57.640271 -106.32437988 57.28054199 -105.46118164 56.90991211 C-95.54689071 53.25975749 -85.69648868 53.35732304 -75.24487305 53.42358398 C-72.20314498 53.43742879 -69.16451592 53.40330493 -66.12304688 53.36523438 C-44.79453452 53.28061596 -28.45106789 58.67850081 -13 74 C-11.62986661 75.63654821 -10.2879728 77.29803595 -9 79 C-7.34811604 80.68371898 -5.68039207 82.3450267 -4 84 C-2.63296006 85.35577633 -1.2662976 86.71193331 0.10009766 88.06835938 C0.87084625 88.83265259 1.64159485 89.5969458 2.43569946 90.38439941 C5.9190594 93.84103719 9.3971771 97.30292904 12.875 100.76513672 C14.71013445 102.59017011 16.54705375 104.41341052 18.38574219 106.23486328 C21.04574551 108.87061559 23.69924446 111.51276705 26.3515625 114.15625 C27.17347076 114.96783569 27.99537903 115.77942139 28.8421936 116.61560059 C29.60663788 117.3798938 30.37108215 118.14418701 31.15869141 118.93164062 C31.82977936 119.59828735 32.50086731 120.26493408 33.19229126 120.95178223 C35.14059268 123.15929803 36.52708823 125.45717344 38 128 C39.18511954 129.312006 40.41352015 130.58659486 41.6875 131.8125 C42.31011719 132.41707031 42.93273437 133.02164063 43.57421875 133.64453125 C44.04472656 134.09183594 44.51523437 134.53914062 45 135 C43.46527032 139.72224516 41.76054874 144.35855331 40 149 C34.72 149 29.44 149 24 149 C24 158.9 24 168.8 24 179 C29.28 179 34.56 179 40 179 C45.18573238 190.3592233 45.18573238 190.3592233 44.375 193.15625 C42.84340747 195.20997634 41.2207543 196.97260697 39.375 198.75 C38.74335938 199.36359375 38.11171875 199.9771875 37.4609375 200.609375 C36.97882813 201.06828125 36.49671875 201.5271875 36 202 C37.45745424 205.36335594 39.31117854 207.54534005 41.9140625 210.109375 C42.67460937 210.86347656 43.43515625 211.61757812 44.21875 212.39453125 C45.0128125 213.17183594 45.806875 213.94914063 46.625 214.75 C47.42679687 215.54277344 48.22859375 216.33554688 49.0546875 217.15234375 C51.03202846 219.10614493 53.01388909 221.05512103 55 223 C56.1055189 222.06409496 57.20935453 221.12620142 58.3125 220.1875 C59.23482422 219.40439453 59.23482422 219.40439453 60.17578125 218.60546875 C62.01652703 217.04058738 62.01652703 217.04058738 63.58325195 215.28930664 C64.28454224 214.65109985 64.28454224 214.65109985 65 214 C70.26300551 214.41021768 75.17802962 217.00691891 80 219 C80 223.95 80 228.9 80 234 C89.9 234 99.8 234 110 234 C110 229.05 110 224.1 110 219 C120.30743581 213.96898966 120.30743581 213.96898966 123.09375 214.09375 C125.67728031 215.32198572 127.28213143 216.996238 129.25 219.0625 C130.30960937 220.16271484 130.30960937 220.16271484 131.390625 221.28515625 C131.92171875 221.85105469 132.4528125 222.41695312 133 223 C136.36335594 221.54254576 138.54534005 219.68882146 141.109375 217.0859375 C141.86347656 216.32539063 142.61757813 215.56484375 143.39453125 214.78125 C144.17183594 213.9871875 144.94914062 213.193125 145.75 212.375 C146.54277344 211.57320312 147.33554687 210.77140625 148.15234375 209.9453125 C150.10614493 207.96797154 152.05512103 205.98611091 154 204 C152.48870152 200.78874988 150.98556941 198.91024656 148.3125 196.5625 C145.02553727 193.32347215 145.02553727 193.32347215 144.8125 190.625 C145.204375 189.75875 145.59625 188.8925 146 188 C146.48726563 186.85724609 146.48726563 186.85724609 146.984375 185.69140625 C147.95191078 183.44433946 148.97266688 181.22036513 150 179 C154.95 179 159.9 179 165 179 C165 169.1 165 159.2 165 149 C160.05 149 155.1 149 150 149 C144.97842728 138.71189979 144.97842728 138.71189979 145.0625 135.9375 C146.40923022 133.15425754 148.33723759 131.38123724 150.5625 129.25 C151.38878906 128.45078125 152.21507812 127.6515625 153.06640625 126.828125 C153.70449219 126.22484375 154.34257812 125.6215625 155 125 C159.74190735 128.95854618 164.22496834 133.0836914 168.57788086 137.46435547 C169.19337799 138.07970657 169.80887512 138.69505768 170.44302368 139.32905579 C172.45267998 141.3394021 174.45878274 143.35325411 176.46484375 145.3671875 C177.86709544 146.77130661 179.26956981 148.17520336 180.67225647 149.57888794 C184.34541268 153.25584379 188.01555454 156.93579391 191.68505859 160.61639404 C195.43729767 164.37890237 199.19240493 168.13854579 202.94726562 171.8984375 C210.30097336 179.26283749 217.65149708 186.63040667 225 194 C224.37202284 191.4487537 223.7415381 188.89817057 223.10961914 186.34790039 C222.93353371 185.63141579 222.75744827 184.91493118 222.57602692 184.17673492 C221.16135486 178.48025283 219.47595587 172.94428514 217.4375 167.4375 C216.93150269 166.06513184 216.93150269 166.06513184 216.4152832 164.66503906 C206.03609139 137.24513955 191.03211783 112.26655646 172 90 C171.35160156 89.23945312 170.70320313 88.47890625 170.03515625 87.6953125 C158.50812394 74.55316818 146.12520223 62.31757435 132 52 C130.84894983 51.14193848 129.69790823 50.28386549 128.546875 49.42578125 C120.35724019 43.38822604 111.85461724 38.00542698 103 33 C102.29278809 32.5978125 101.58557617 32.195625 100.85693359 31.78125 C69.84242442 14.31981532 35.32170571 4.47726637 0 1 C0 0.67 0 0.34 0 0 Z " transform="translate(279,0)" style="fill: #7C56D8;"/><path d="M0 0 C0.33 0 0.66 0 1 0 C1.08975098 0.72251953 1.17950195 1.44503906 1.27197266 2.18945312 C7.89792235 54.43791321 26.28518731 102.7769329 61 143 C61.65742187 143.76828125 62.31484375 144.5365625 62.9921875 145.328125 C73.33353154 157.11335482 84.48548438 168.52720693 97 178 C97.53882812 178.41523926 98.07765625 178.83047852 98.6328125 179.25830078 C108.62929469 186.94337664 119.09010449 193.68728061 130 200 C131.01586182 200.59143799 131.01586182 200.59143799 132.05224609 201.19482422 C152.06632531 212.70647881 173.79991829 219.99610416 196 226 C199.63 226.99 203.26 227.98 207 229 C207 200.95 207 172.9 207 144 C209.97 143.01 212.94 142.02 216 141 C222.31205079 137.47981783 226.71562619 132.95375464 229 126 C229.90743918 118.62586267 229.68081531 112.183939 225.5390625 105.8671875 C220.367512 99.59307294 215.06300382 98.41890115 207 96 C207 75.54 207 55.08 207 34 C259.8 34 312.6 34 367 34 C367 45.1742192 366.98674937 56.22476984 366.4412384 67.36799622 C366.40127054 68.1960911 366.36130268 69.02418598 366.32012367 69.87737465 C366.27893599 70.72995039 366.2377483 71.58252613 366.1953125 72.4609375 C366.11058253 74.28612791 366.02629971 76.11133913 365.94242859 77.93656921 C365.7654034 81.77464759 365.58597449 85.6126018 365.40444946 89.45046997 C364.9326456 99.43135323 364.47638635 109.41295458 364.01953125 119.39453125 C363.97437819 120.37807272 363.92922512 121.36161419 363.88270378 122.37495995 C363.01326483 141.33482691 362.25594539 160.29673383 361.59619141 179.26513672 C361.22398103 189.85784519 360.73699448 200.42569025 360 211 C382.63159337 200.8383644 403.11933319 188.13806231 422 172 C423.14082031 171.02740234 423.14082031 171.02740234 424.3046875 170.03515625 C437.44683182 158.50812394 449.68242565 146.12520223 460 132 C460.85806152 130.84894983 461.71613451 129.69790823 462.57421875 128.546875 C468.61177396 120.35724019 473.99457302 111.85461724 479 103 C479.4021875 102.29278809 479.804375 101.58557617 480.21875 100.85693359 C497.68018468 69.84242442 507.52273363 35.32170571 511 0 C511.33 0 511.66 0 512 0 C512 76.89 512 153.78 512 233 C343.04 233 174.08 233 0 233 C0 156.11 0 79.22 0 0 Z " transform="translate(0,279)" style="fill: #3F3F3F;"/><path d="M0 0 C2.6877438 0.14209669 5.37513302 0.2885723 8.0625 0.4375 C8.81466797 0.47681641 9.56683594 0.51613281 10.34179688 0.55664062 C11.45844727 0.61948242 11.45844727 0.61948242 12.59765625 0.68359375 C13.27320557 0.72025146 13.94875488 0.75690918 14.64477539 0.79467773 C16.50832268 0.95713687 18.3634162 1.21624743 20.2109375 1.50927734 C24.51474158 2.06666434 28.69382018 2.16199506 33.02734375 2.16796875 C33.89275284 2.17129715 34.75816193 2.17462555 35.64979553 2.17805481 C37.48454258 2.18310247 39.31929875 2.1854638 41.15405273 2.18530273 C43.87044994 2.18744707 46.58641122 2.20550655 49.30273438 2.22460938 C62.94938831 2.26673582 76.42151886 1.32353265 90 0 C90.08547592 0.63449066 90.17095184 1.26898132 90.25901794 1.92269897 C91.14699865 8.5089459 92.03993505 15.09450723 92.93579102 21.6796875 C93.26975396 24.1394749 93.60244026 26.59943598 93.93383789 29.05957031 C94.40958853 32.5896543 94.88988263 36.11909427 95.37109375 39.6484375 C95.51904892 40.75367767 95.66700409 41.85891785 95.81944275 42.99765015 C95.95951248 44.01855743 96.09958221 45.03946472 96.24389648 46.09130859 C96.42709694 47.44366104 96.42709694 47.44366104 96.61399841 48.82333374 C96.90030354 51.03741181 96.90030354 51.03741181 98 53 C110.19316399 43.78220139 112.82782372 33.79449519 115 19 C119.30162062 19.84936458 121.11477129 21.67088994 124 25 C127.38484913 30.29942966 127.39519996 34.73678915 127.25 40.8125 C127.24484375 41.66392578 127.2396875 42.51535156 127.234375 43.39257812 C127.01430087 61.45241137 127.01430087 61.45241137 121 68 C117.46080047 70.51967703 114.28258941 71.91677855 109.9296875 72.19921875 C106.74006361 72.7069997 106.74006361 72.7069997 105.34765625 75.7734375 C104.92355469 76.96195312 104.49945313 78.15046875 104.0625 79.375 C103.56732784 80.66303807 103.0645939 81.94819226 102.5546875 83.23046875 C102.30041992 83.87032715 102.04615234 84.51018555 101.78417969 85.16943359 C97.89315048 94.25253976 90.95064426 103.04935574 84 110 C83.84193469 111.92478813 83.748865 113.8549921 83.68359375 115.78515625 C83.64169922 116.95498047 83.59980469 118.12480469 83.55664062 119.33007812 C83.51732422 120.56177734 83.47800781 121.79347656 83.4375 123.0625 C83.37272461 124.91584961 83.37272461 124.91584961 83.30664062 126.80664062 C83.20015802 129.87097335 83.09814576 132.93539073 83 136 C83.87422607 136.26353271 84.74845215 136.52706543 85.64916992 136.79858398 C88.9462715 137.98073603 91.62328026 139.41175287 94.61328125 141.22265625 C108.37788975 149.20128424 119.11355525 153.60875003 135.40625 152.98046875 C147.87050112 152.59670245 159.2273781 158.18717589 168.25 166.5 C177.17247735 175.96237248 179.86021656 185.16129936 182 198 C91.91 198 1.82 198 -91 198 C-91 184.75346436 -86.17661572 175.53389313 -77.1953125 166.10546875 C-67.17972885 156.56780714 -55.22385149 152.78874952 -41.69018555 152.9777832 C-27.53216934 153.08253802 -17.97715327 149.16612935 -6 142 C-3.80301224 140.76948243 -1.59005028 139.57302331 0.625 138.375 C1.44226563 137.90835938 2.25953125 137.44171875 3.1015625 136.9609375 C5 136 5 136 7 136 C6.97718063 131.60302024 6.89984042 127.20863425 6.8125 122.8125 C6.80669922 121.56662109 6.80089844 120.32074219 6.79492188 119.03710938 C6.78036523 111.97881267 6.78036523 111.97881267 3.6796875 105.88671875 C2.79539062 105.26410156 1.91109375 104.64148438 1 104 C-3.56017808 99.31708421 -6.77943844 94.70703504 -9.421875 88.75 C-9.83993408 87.80769531 -10.25799316 86.86539063 -10.6887207 85.89453125 C-11.51092595 83.9887511 -12.30216104 82.06926122 -13.05932617 80.13671875 C-15.06309902 75.11169585 -15.06309902 75.11169585 -19.2043457 71.99072266 C-21.57452194 71.43838336 -21.57452194 71.43838336 -23.88574219 71.24462891 C-27.41449067 70.83633722 -29.38181668 69.3137434 -32 67 C-38.69192742 57.54121797 -38.46325413 42.13367171 -37 31 C-35.06460302 25.69603231 -32.69737414 22.13158276 -28 19 C-27.01 19 -26.02 19 -25 19 C-24.91137695 19.60884033 -24.82275391 20.21768066 -24.73144531 20.8449707 C-22.77066795 33.39180937 -20.95555851 42.56280568 -10.44921875 50.3671875 C-9.64097656 50.90601563 -8.83273438 51.44484375 -8 52 C-6.14339696 44.32316229 -4.933332 36.57572949 -3.76782227 28.77124023 C-3.4386423 26.57013814 -3.10346741 24.37000898 -2.76757812 22.16992188 C-1.65109147 14.79399343 -0.65187009 7.43424876 0 0 Z " transform="translate(162,115)" style="fill: #FEDBBF;"/><path d="M0 0 C52.8 0 105.6 0 160 0 C160 20.46 160 40.92 160 62 C163.3 62.66 166.6 63.32 170 64 C176.32348486 67.75743303 180.69903712 71.87443752 183 79 C183.92584881 85.68577545 183.95526274 92.31437316 180.3828125 98.22265625 C174.60647515 105.64704465 170.49685715 107.15094286 161 110 C160.67 138.05 160.34 166.1 160 195 C110.78910505 185.15782101 67.10283794 162.81058875 31 128 C30.35740234 127.38463379 29.71480469 126.76926758 29.05273438 126.13525391 C26.98193138 124.14337173 24.92647536 122.13677096 22.875 120.125 C22.25447754 119.52598877 21.63395508 118.92697754 20.99462891 118.30981445 C18.9315477 116.26095214 16.96742763 114.14096619 15 112 C14.54074127 111.53502106 14.08148254 111.07004211 13.60830688 110.5909729 C3.76182425 100.51114699 2.39605519 92.20449971 2.4375 78.4375 C2.40348057 76.57093591 2.36381079 74.7044673 2.31884766 72.83813477 C2.22870697 68.91944257 2.16350393 65.00143352 2.11376953 61.08203125 C1.97147947 51.84418028 1.47531566 42.62118664 1.01980591 33.39456177 C0.78990435 28.69977322 0.57543265 24.00438706 0.3671875 19.30859375 C0.32983994 18.51235596 0.29249237 17.71611816 0.25401306 16.89575195 C0.00439191 11.24637222 0 5.66959854 0 0 Z " transform="translate(47,313)" style="fill: #595959;"/><path d="M0 0 C0.33 0 0.66 0 1 0 C1.08975098 0.72251953 1.17950195 1.44503906 1.27197266 2.18945312 C7.89792235 54.43791321 26.28518731 102.7769329 61 143 C61.65742187 143.76828125 62.31484375 144.5365625 62.9921875 145.328125 C73.33353154 157.11335482 84.48548438 168.52720693 97 178 C97.53882812 178.41523926 98.07765625 178.83047852 98.6328125 179.25830078 C108.62929469 186.94337664 119.09010449 193.68728061 130 200 C131.01586182 200.59143799 131.01586182 200.59143799 132.05224609 201.19482422 C162.93217414 218.95627412 197.78430517 228.21443733 233 232 C233 232.33 233 232.66 233 233 C156.11 233 79.22 233 0 233 C0 156.11 0 79.22 0 0 Z " transform="translate(0,279)" style="fill: #000000;"/><path d="M0 0 C0.33 0 0.66 0 1 0 C1 76.89 1 153.78 1 233 C-75.89 233 -152.78 233 -232 233 C-232 232.67 -232 232.34 -232 232 C-230.9162207 231.86537354 -230.9162207 231.86537354 -229.81054688 231.72802734 C-172.29919623 224.43465802 -120.0877406 202.49228995 -78 162 C-77.37303223 161.40026367 -76.74606445 160.80052734 -76.10009766 160.18261719 C-66.9066163 151.34281682 -58.53954666 142.2862633 -51 132 C-50.57525391 131.43071777 -50.15050781 130.86143555 -49.71289062 130.27490234 C-43.19731985 121.53408179 -37.36411453 112.48913672 -32 103 C-31.5978125 102.29278809 -31.195625 101.58557617 -30.78125 100.85693359 C-13.31981532 69.84242442 -3.47726637 35.32170571 0 0 Z " transform="translate(511,279)" style="fill: #000000;"/><path d="M0 0 C76.89 0 153.78 0 233 0 C233 76.89 233 153.78 233 233 C232.67 233 232.34 233 232 233 C231.94054199 232.43418213 231.88108398 231.86836426 231.81982422 231.28540039 C226.1535544 179.18806692 206.37106852 129.8348613 172 90 C171.35417969 89.24332031 170.70835937 88.48664063 170.04296875 87.70703125 C158.52176153 74.55567233 146.1272337 62.31905822 132 52 C130.84894983 51.14193848 129.69790823 50.28386549 128.546875 49.42578125 C120.35724019 43.38822604 111.85461724 38.00542698 103 33 C102.29278809 32.5978125 101.58557617 32.195625 100.85693359 31.78125 C69.84242442 14.31981532 35.32170571 4.47726637 0 1 C0 0.67 0 0.34 0 0 Z " transform="translate(279,0)" style="fill: #000000;"/><path d="M0 0 C76.89 0 153.78 0 233 0 C233 0.33 233 0.66 233 1 C232.45400146 1.06469482 231.90800293 1.12938965 231.34545898 1.19604492 C173.72927023 8.17129795 121.04641402 30.54747003 79 71 C78.37303223 71.59973633 77.74606445 72.19947266 77.10009766 72.81738281 C67.9066163 81.65718318 59.53954666 90.7137367 52 101 C51.57525391 101.56928223 51.15050781 102.13856445 50.71289062 102.72509766 C44.19731985 111.46591821 38.36411453 120.51086328 33 130 C32.5978125 130.70721191 32.195625 131.41442383 31.78125 132.14306641 C14.31981532 163.15757558 4.47726637 197.67829429 1 233 C0.67 233 0.34 233 0 233 C0 156.11 0 79.22 0 0 Z " transform="translate(0,0)" style="fill: #000000;"/><path d="M0 0 C9.9 0 19.8 0 30 0 C30 4.95 30 9.9 30 15 C31.5675 15.474375 33.135 15.94875 34.75 16.4375 C35.63171875 16.70433594 36.5134375 16.97117187 37.421875 17.24609375 C38.27265625 17.49488281 39.1234375 17.74367188 40 18 C40.6703125 18.28875 41.340625 18.5775 42.03125 18.875 C44.24325689 19.23609775 44.24325689 19.23609775 46.359375 17.12890625 C47.14828125 16.28199219 47.9371875 15.43507813 48.75 14.5625 C49.54921875 13.71816406 50.3484375 12.87382813 51.171875 12.00390625 C51.77515625 11.34261719 52.3784375 10.68132812 53 10 C56.46629835 11.48653506 58.69022036 13.45722351 61.328125 16.1328125 C62.12734375 16.93847656 62.9265625 17.74414062 63.75 18.57421875 C64.575 19.41597656 65.4 20.25773437 66.25 21.125 C67.09046875 21.97449219 67.9309375 22.82398437 68.796875 23.69921875 C70.86915683 25.79504923 72.93662393 27.89540713 75 30 C73.48870152 33.21125012 71.98556941 35.08975344 69.3125 37.4375 C66.55539445 39.945631 66.55539445 39.945631 65.875 43.4375 C66.24625 44.283125 66.6175 45.12875 67 46 C67.52444945 47.43618466 68.0450634 48.87377384 68.5625 50.3125 C69.036875 51.529375 69.51125 52.74625 70 54 C74.95 54.33 79.9 54.66 85 55 C85 64.9 85 74.8 85 85 C80.05 85.33 75.1 85.66 70 86 C69.319375 87.5675 68.63875 89.135 67.9375 90.75 C67.55464844 91.63171875 67.17179687 92.5134375 66.77734375 93.421875 C65.9188786 96.26904585 65.78697389 97.31401361 67 100 C68.8394603 102.20149485 68.8394603 102.20149485 71.0625 104.25 C71.79597656 104.95640625 72.52945313 105.6628125 73.28515625 106.390625 C73.85105469 106.92171875 74.41695312 107.4528125 75 108 C73.51346494 111.46629835 71.54277649 113.69022036 68.8671875 116.328125 C68.06152344 117.12734375 67.25585938 117.9265625 66.42578125 118.75 C65.58402344 119.575 64.74226563 120.4 63.875 121.25 C63.02550781 122.09046875 62.17601562 122.9309375 61.30078125 123.796875 C59.20495077 125.86915683 57.10459287 127.93662393 55 130 C51.78874988 128.48870152 49.91024656 126.98556941 47.5625 124.3125 C45.0751782 121.57480474 45.0751782 121.57480474 41.625 120.875 C40.75875 121.24625 39.8925 121.6175 39 122 C37.39833255 122.52846896 35.79394542 123.04873821 34.1875 123.5625 C32.805625 124.036875 31.42375 124.51125 30 125 C30 129.95 30 134.9 30 140 C20.1 140 10.2 140 0 140 C0 135.05 0 130.1 0 125 C-1.546875 124.525625 -3.09375 124.05125 -4.6875 123.5625 C-5.55761719 123.29566406 -6.42773438 123.02882813 -7.32421875 122.75390625 C-8.20722656 122.50511719 -9.09023438 122.25632812 -10 122 C-10.8353125 121.71125 -11.670625 121.4225 -12.53125 121.125 C-15.18630278 120.72436873 -15.18630278 120.72436873 -17.45703125 122.87109375 C-18.23433594 123.71800781 -19.01164062 124.56492187 -19.8125 125.4375 C-20.60269531 126.28183594 -21.39289063 127.12617188 -22.20703125 127.99609375 C-22.79871094 128.65738281 -23.39039063 129.31867188 -24 130 C-29.06623768 125.76183463 -33.80038069 121.32591037 -38.4375 116.625 C-39.07365234 115.98433594 -39.70980469 115.34367187 -40.36523438 114.68359375 C-41.91250332 113.12469121 -43.45736492 111.56348584 -45 110 C-43.49053489 106.81913482 -41.92058175 104.70130094 -39.375 102.25 C-38.74335938 101.63640625 -38.11171875 101.0228125 -37.4609375 100.390625 C-36.73777344 99.70226562 -36.73777344 99.70226562 -36 99 C-36.20496094 98.40832031 -36.40992188 97.81664062 -36.62109375 97.20703125 C-36.89050781 96.41683594 -37.15992188 95.62664062 -37.4375 94.8125 C-37.83775391 93.64654297 -37.83775391 93.64654297 -38.24609375 92.45703125 C-38.99513423 90.01585787 -39.49921642 87.50391792 -40 85 C-45.28 85 -50.56 85 -56 85 C-56 75.1 -56 65.2 -56 55 C-50.72 55 -45.44 55 -40 55 C-39.67 53.02 -39.34 51.04 -39 49 C-38.443125 47.96875 -37.88625 46.9375 -37.3125 45.875 C-35.68069964 43.18330766 -35.68069964 43.18330766 -36.69140625 41.0546875 C-38.1273217 38.80008592 -39.70111155 37.10263332 -41.625 35.25 C-42.57246094 34.32960938 -42.57246094 34.32960938 -43.5390625 33.390625 C-44.02117187 32.93171875 -44.50328125 32.4728125 -45 32 C-43.51346494 28.53370165 -41.54277649 26.30977964 -38.8671875 23.671875 C-38.06152344 22.87265625 -37.25585938 22.0734375 -36.42578125 21.25 C-35.58402344 20.425 -34.74226563 19.6 -33.875 18.75 C-33.02550781 17.90953125 -32.17601562 17.0690625 -31.30078125 16.203125 C-29.20495077 14.13084317 -27.10459287 12.06337607 -25 10 C-23.8944811 10.93590504 -22.79064547 11.87379858 -21.6875 12.8125 C-20.76517578 13.59560547 -20.76517578 13.59560547 -19.82421875 14.39453125 C-18 16 -18 16 -16.41015625 17.70703125 C-15.94480469 18.13371094 -15.47945313 18.56039062 -15 19 C-11.74408444 18.8191158 -9.38296117 17.73403499 -6.375 16.4375 C-3 15 -3 15 0 15 C0 10.05 0 5.1 0 0 Z " transform="translate(359,94)" style="fill: #E1E1E2;"/><path d="M0 0 C3.04172806 0.01384481 6.08035713 -0.02027905 9.12182617 -0.05834961 C29.22356474 -0.13810094 45.11336806 4.42751853 60.18237305 18.42016602 C72.76848528 31.57837426 77.01896667 47.12546324 76.7019043 64.86157227 C75.94278654 80.98137766 73.48441063 98.8620113 61.55737305 110.38891602 C60.79070312 111.14205078 60.79070312 111.14205078 60.00854492 111.91040039 C58.75852943 113.13705111 57.50232625 114.35739092 56.24487305 115.57641602 C54.33461963 112.71103589 53.91895858 111.65885903 53.46704102 108.41552734 C53.34706757 107.58068314 53.22709412 106.74583893 53.10348511 105.88569641 C52.982565 104.98570419 52.8616449 104.08571198 52.73706055 103.15844727 C52.54154099 101.76162971 52.54154099 101.76162971 52.34207153 100.33659363 C52.06782076 98.3642341 51.79740183 96.39133855 51.53051758 94.41796875 C51.1236238 91.41658287 50.70281094 88.41739725 50.2800293 85.41821289 C50.01486838 83.49840657 49.75051958 81.57848788 49.48706055 79.65844727 C49.36209198 78.7685762 49.23712341 77.87870514 49.10836792 76.96186829 C48.41599329 71.7807137 48.12444399 66.8037187 48.24487305 61.57641602 C47.02864258 61.77557617 47.02864258 61.77557617 45.7878418 61.97875977 C44.68053711 62.15536133 43.57323242 62.33196289 42.43237305 62.51391602 C41.35342773 62.68793945 40.27448242 62.86196289 39.1628418 63.04125977 C27.45730056 64.64012233 15.85383364 64.81291387 4.05737305 64.82641602 C3.12910706 64.82875244 2.20084106 64.83108887 1.2444458 64.83349609 C-13.30581993 64.84731729 -27.39116712 64.07449599 -41.75512695 61.57641602 C-41.73350998 62.49179893 -41.73350998 62.49179893 -41.7114563 63.42567444 C-41.63088388 69.47327528 -42.08037396 75.22542586 -42.99731445 81.19750977 C-43.12574738 82.06408707 -43.2541803 82.93066437 -43.38650513 83.82350159 C-43.6569753 85.63482997 -43.93108887 87.44561786 -44.20874023 89.25585938 C-44.63254993 92.02977486 -45.04021245 94.80575023 -45.4465332 97.58227539 C-45.71250217 99.34999794 -45.97939592 101.11758165 -46.24731445 102.88500977 C-46.36823456 103.71310654 -46.48915466 104.54120331 -46.61373901 105.39439392 C-47.18683704 109.06459298 -47.66650785 111.44348736 -49.75512695 114.57641602 C-58.64446553 108.79966484 -63.20924791 103.22318644 -65.76635742 92.77514648 C-66.89873165 87.39318808 -67.9080353 82.01057093 -68.75512695 76.57641602 C-68.95879883 75.35567383 -69.1624707 74.13493164 -69.37231445 72.87719727 C-71.47973348 54.70608422 -69.38926483 38.38952136 -57.75512695 23.57641602 C-50.69483725 15.23034998 -42.84832958 8.86652139 -32.75512695 4.57641602 C-31.91731689 4.21668701 -31.07950684 3.85695801 -30.21630859 3.48632812 C-20.30201766 -0.16382649 -10.45161563 -0.06626094 0 0 Z " transform="translate(203.755126953125,53.423583984375)" style="fill: #403F3F;"/><path d="M0 0 C0.08547592 0.63449066 0.17095184 1.26898132 0.25901794 1.92269897 C1.14699865 8.5089459 2.03993505 15.09450723 2.93579102 21.6796875 C3.26975396 24.1394749 3.60244026 26.59943598 3.93383789 29.05957031 C4.40958853 32.5896543 4.88988263 36.11909427 5.37109375 39.6484375 C5.51904892 40.75367767 5.66700409 41.85891785 5.81944275 42.99765015 C5.95951248 44.01855743 6.09958221 45.03946472 6.24389648 46.09130859 C6.36603012 46.99287689 6.48816376 47.89444519 6.61399841 48.82333374 C6.90030354 51.03741181 6.90030354 51.03741181 8 53 C20.19316399 43.78220139 22.82782372 33.79449519 25 19 C29.30162062 19.84936458 31.11477129 21.67088994 34 25 C37.38484913 30.29942966 37.39519996 34.73678915 37.25 40.8125 C37.24484375 41.66392578 37.2396875 42.51535156 37.234375 43.39257812 C37.01430087 61.45241137 37.01430087 61.45241137 31 68 C27.46080047 70.51967703 24.28258941 71.91677855 19.9296875 72.19921875 C16.74006361 72.7069997 16.74006361 72.7069997 15.34765625 75.7734375 C14.92355469 76.96195312 14.49945313 78.15046875 14.0625 79.375 C13.56732784 80.66303807 13.0645939 81.94819226 12.5546875 83.23046875 C12.30041992 83.87032715 12.04615234 84.51018555 11.78417969 85.16943359 C7.89315048 94.25253976 0.95064426 103.04935574 -6 110 C-6.04839156 111.8717704 -6.0365666 113.74514876 -6 115.6171875 C-5.9087757 137.50797766 -5.9087757 137.50797766 -11.25 143.875 C-13.578125 146.0546875 -13.578125 146.0546875 -16 148 C-17.65 149.65 -19.3 151.3 -21 153 C-28.92 153 -36.84 153 -45 153 C-45 103.5 -45 54 -45 3 C-29.16 2.01 -29.16 2.01 -13 1 C-4 0 -4 0 0 0 Z " transform="translate(252,115)" style="fill: #FDC0A5;"/><path d="M0 0 C7.26 0 14.52 0 22 0 C22 3.96 22 7.92 22 12 C22.886875 12.144375 23.77375 12.28875 24.6875 12.4375 C28 13 28 13 30.5 13.9375 C33.01700071 14.26384712 33.01700071 14.26384712 34.64453125 12.7265625 C36.1714863 11.20318346 37.60967597 9.64832231 39 8 C43.25314786 9.67642324 46.12101814 12.7175909 49.3125 15.875 C49.87517578 16.40480469 50.43785156 16.93460938 51.01757812 17.48046875 C52.61328125 19.0546875 52.61328125 19.0546875 55 22 C54.59710232 26.25183441 52.04032037 28.19355043 49 31 C49.495 32.36125 49.495 32.36125 50 33.75 C51 37 51 37 51 41 C54.96 41 58.92 41 63 41 C63 48.26 63 55.52 63 63 C59.37 63.33 55.74 63.66 52 64 C49.75850642 68.38217647 49.75850642 68.38217647 49 73.125 C50.49877796 75.93520868 52.67747893 77.85613439 55 80 C53.34136495 84.32504836 50.128959 87.09418825 46.875 90.25 C46.31167969 90.80429687 45.74835938 91.35859375 45.16796875 91.9296875 C43.78313972 93.29104485 42.39216796 94.64614859 41 96 C38.40117486 94.80594521 36.99580968 93.995269 35.0625 91.8125 C33.15146026 89.70803902 33.15146026 89.70803902 30.5625 90.125 C28.01033577 90.99647071 25.50396297 91.99841481 23 93 C22.67 96.63 22.34 100.26 22 104 C14.74 104 7.48 104 0 104 C0 100.04 0 96.08 0 92 C-0.886875 91.855625 -1.77375 91.71125 -2.6875 91.5625 C-6 91 -6 91 -8.5 90.0625 C-11.01700071 89.73615288 -11.01700071 89.73615288 -12.64453125 91.2734375 C-14.1714863 92.79681654 -15.60967597 94.35167769 -17 96 C-21.32504836 94.34136495 -24.09418825 91.128959 -27.25 87.875 C-27.80429687 87.31167969 -28.35859375 86.74835938 -28.9296875 86.16796875 C-30.29104485 84.78313972 -31.64614859 83.39216796 -33 82 C-31.80701654 79.39810847 -31.02872576 78.02462208 -28.8125 76.125 C-26.6519877 74.09130293 -26.6519877 74.09130293 -27.1875 71.0625 C-27.455625 70.051875 -27.72375 69.04125 -28 68 C-28.495 65.525 -28.495 65.525 -29 63 C-32.96 63 -36.92 63 -41 63 C-41 55.74 -41 48.48 -41 41 C-37.04 41 -33.08 41 -29 41 C-28.67 39.35 -28.34 37.7 -28 36 C-27.5359375 34.576875 -27.5359375 34.576875 -27.0625 33.125 C-26.63025271 28.85924171 -26.63025271 28.85924171 -33 23 C-28.05 18.05 -23.1 13.1 -18 8 C-15.69 9.98 -13.38 11.96 -11 14 C-10.34 14.33 -9.68 14.66 -9 15 C-6.99152635 14.01712992 -4.99180409 13.01622658 -3 12 C-2.01 12 -1.02 12 0 12 C0 8.04 0 4.08 0 0 Z " transform="translate(426,231)" style="fill: #C3C3C4;"/><path d="M0 0 C4.95 0 9.9 0 15 0 C15 14.19 15 28.38 15 43 C11.04 44.32 7.08 45.64 3 47 C-3.33422783 51.04686778 -7.57524932 54.72574795 -10 62 C-10.77933912 71.18506817 -10.83220436 79.39959676 -5 87 C0.66675842 93.03320007 6.94691396 94.31563799 15 97 C15 111.19 15 125.38 15 140 C10.05 140 5.1 140 0 140 C0 135.05 0 130.1 0 125 C-1.546875 124.525625 -3.09375 124.05125 -4.6875 123.5625 C-5.55761719 123.29566406 -6.42773438 123.02882813 -7.32421875 122.75390625 C-8.20722656 122.50511719 -9.09023438 122.25632812 -10 122 C-10.8353125 121.71125 -11.670625 121.4225 -12.53125 121.125 C-15.18630278 120.72436873 -15.18630278 120.72436873 -17.45703125 122.87109375 C-18.23433594 123.71800781 -19.01164062 124.56492187 -19.8125 125.4375 C-20.60269531 126.28183594 -21.39289063 127.12617188 -22.20703125 127.99609375 C-22.79871094 128.65738281 -23.39039063 129.31867188 -24 130 C-29.06623768 125.76183463 -33.80038069 121.32591037 -38.4375 116.625 C-39.07365234 115.98433594 -39.70980469 115.34367187 -40.36523438 114.68359375 C-41.91250332 113.12469121 -43.45736492 111.56348584 -45 110 C-43.49053489 106.81913482 -41.92058175 104.70130094 -39.375 102.25 C-38.74335938 101.63640625 -38.11171875 101.0228125 -37.4609375 100.390625 C-36.73777344 99.70226562 -36.73777344 99.70226562 -36 99 C-36.20496094 98.40832031 -36.40992188 97.81664062 -36.62109375 97.20703125 C-36.89050781 96.41683594 -37.15992188 95.62664062 -37.4375 94.8125 C-37.83775391 93.64654297 -37.83775391 93.64654297 -38.24609375 92.45703125 C-38.99513423 90.01585787 -39.49921642 87.50391792 -40 85 C-45.28 85 -50.56 85 -56 85 C-56 75.1 -56 65.2 -56 55 C-50.72 55 -45.44 55 -40 55 C-39.67 53.02 -39.34 51.04 -39 49 C-38.443125 47.96875 -37.88625 46.9375 -37.3125 45.875 C-35.68069964 43.18330766 -35.68069964 43.18330766 -36.69140625 41.0546875 C-38.1273217 38.80008592 -39.70111155 37.10263332 -41.625 35.25 C-42.57246094 34.32960938 -42.57246094 34.32960938 -43.5390625 33.390625 C-44.02117187 32.93171875 -44.50328125 32.4728125 -45 32 C-43.51346494 28.53370165 -41.54277649 26.30977964 -38.8671875 23.671875 C-38.06152344 22.87265625 -37.25585938 22.0734375 -36.42578125 21.25 C-35.58402344 20.425 -34.74226563 19.6 -33.875 18.75 C-33.02550781 17.90953125 -32.17601562 17.0690625 -31.30078125 16.203125 C-29.20495077 14.13084317 -27.10459287 12.06337607 -25 10 C-23.8944811 10.93590504 -22.79064547 11.87379858 -21.6875 12.8125 C-20.76517578 13.59560547 -20.76517578 13.59560547 -19.82421875 14.39453125 C-18 16 -18 16 -16.41015625 17.70703125 C-15.94480469 18.13371094 -15.47945313 18.56039062 -15 19 C-11.74408444 18.8191158 -9.38296117 17.73403499 -6.375 16.4375 C-3 15 -3 15 0 15 C0 10.05 0 5.1 0 0 Z " transform="translate(359,94)" style="fill: #FEFDFE;"/><path d="M0 0 C0 21.12 0 42.24 0 64 C-24.15709459 64 -24.15709459 64 -34.3125 62.5 C-35.36244141 62.35691406 -36.41238281 62.21382812 -37.49414062 62.06640625 C-39.99816083 61.72338978 -42.49922438 61.36566484 -45 61 C-44.97838303 61.91538292 -44.97838303 61.91538292 -44.95632935 62.84925842 C-44.87575692 68.89685927 -45.32524701 74.64900984 -46.2421875 80.62109375 C-46.37062042 81.48767105 -46.49905334 82.35424835 -46.63137817 83.24708557 C-46.90184835 85.05841396 -47.17596192 86.86920184 -47.45361328 88.67944336 C-47.87742298 91.45335884 -48.2850855 94.22933422 -48.69140625 97.00585938 C-48.95737522 98.77358192 -49.22426897 100.54116563 -49.4921875 102.30859375 C-49.6131076 103.13669052 -49.73402771 103.96478729 -49.85861206 104.81797791 C-50.43171009 108.48817696 -50.9113809 110.86707134 -53 114 C-61.88933857 108.22324882 -66.45412096 102.64677043 -69.01123047 92.19873047 C-70.1436047 86.81677207 -71.15290834 81.43415492 -72 76 C-72.20367187 74.77925781 -72.40734375 73.55851562 -72.6171875 72.30078125 C-74.72460653 54.1296682 -72.63413788 37.81310534 -61 23 C-44.09759186 3.01942973 -26.30455763 0 0 0 Z " transform="translate(207,54)" style="fill: #5A595A;"/><path d="M0 0 C3.63 0 7.26 0 11 0 C11 10.89 11 21.78 11 33 C7.7 34.32 4.4 35.64 1 37 C-4.6241681 42.73894704 -5.35600285 46.2039525 -5.28125 54.015625 C-4.79086567 59.21914765 -2.29358756 61.74137427 1.3125 65.25 C4.50284413 67.51525281 4.50284413 67.51525281 11 69 C11 79.89 11 90.78 11 102 C7.37 102 3.74 102 0 102 C0 98.37 0 94.74 0 91 C-0.886875 90.855625 -1.77375 90.71125 -2.6875 90.5625 C-6 90 -6 90 -8.5 89.0625 C-11.01700071 88.73615288 -11.01700071 88.73615288 -12.64453125 90.2734375 C-14.1714863 91.79681654 -15.60967597 93.35167769 -17 95 C-21.32504836 93.34136495 -24.09418825 90.128959 -27.25 86.875 C-27.80429687 86.31167969 -28.35859375 85.74835938 -28.9296875 85.16796875 C-30.29104485 83.78313972 -31.64614859 82.39216796 -33 81 C-31.80701654 78.39810847 -31.02872576 77.02462208 -28.8125 75.125 C-26.6519877 73.09130293 -26.6519877 73.09130293 -27.1875 70.0625 C-27.455625 69.051875 -27.72375 68.04125 -28 67 C-28.495 64.525 -28.495 64.525 -29 62 C-32.96 62 -36.92 62 -41 62 C-41 54.74 -41 47.48 -41 40 C-37.04 40 -33.08 40 -29 40 C-28.67 38.35 -28.34 36.7 -28 35 C-27.5359375 33.576875 -27.5359375 33.576875 -27.0625 32.125 C-26.63025271 27.85924171 -26.63025271 27.85924171 -33 22 C-28.05 17.05 -23.1 12.1 -18 7 C-15.69 8.98 -13.38 10.96 -11 13 C-10.34 13.33 -9.68 13.66 -9 14 C-6.99152635 13.01712992 -4.99180409 12.01622658 -3 11 C-2.01 11 -1.02 11 0 11 C0 7.37 0 3.74 0 0 Z " transform="translate(426,232)" style="fill: #E0E0E1;"/><path d="M0 0 C13.11889916 2.8844329 23.53126064 8.31325747 32 19 C37.46927431 27.64955604 39.25017498 34.50104988 41 45 C10.64 45 -19.72 45 -51 45 C-47.21947503 37.43895006 -43.32857375 30.43879581 -38.69824219 23.43237305 C-36.08841979 19.44852835 -33.73104185 15.59260035 -31.83984375 11.21484375 C-25.30081034 -3.10439978 -14.46956183 -2.40941657 0 0 Z " transform="translate(303,268)" style="fill: #E1E1E2;"/><path d="M0 0 C7.45059677 6.42292825 11.37743684 15.79359939 15.38867188 24.59765625 C17.42027443 28.88741582 19.85944503 32.73647089 22.5625 36.625 C26 41.78449905 26 41.78449905 26 44 C-4.03 44 -34.06 44 -65 44 C-65 30.75346436 -60.17661572 21.53389313 -51.1953125 12.10546875 C-38.55465854 0.06799952 -16.83247212 -5.8876616 0 0 Z " transform="translate(136,269)" style="fill: #FEFEFE;"/><path d="M0 0 C1.40234375 1.35546875 1.40234375 1.35546875 2.9375 3.1875 C3.55238281 3.91066406 4.16726562 4.63382812 4.80078125 5.37890625 C5.52652344 6.24386719 6.25226563 7.10882813 7 8 C8.86957162 10.21297681 10.74556775 12.42039276 12.625 14.625 C13.13023193 15.21812988 13.63546387 15.81125977 14.15600586 16.42236328 C18.51544526 21.50622996 23.03656947 26.4256349 27.63525391 31.29345703 C29.87498784 33.67128088 32.02567865 36.03224421 34.0625 38.58984375 C37.75805634 43.18693702 42.1227108 47.06535803 46.5 51 C50.1055783 54.24096926 53.58216689 57.56211255 57 61 C48.80386954 61.6076193 40.61734894 62.06660297 32.40415192 62.34711647 C28.58727196 62.48193354 24.7859345 62.66359603 20.97802734 62.96142578 C-3.49733253 64.8260258 -3.49733253 64.8260258 -10.921875 58.51721191 C-16.0054625 52.3184026 -19.37089377 45.53315026 -22.55395508 38.1807251 C-24.60997097 33.65830587 -27.2329986 29.61190494 -30 25.5 C-34 19.31886097 -34 19.31886097 -34 17 C-41.92 17 -49.84 17 -58 17 C-58 16.67 -58 16.34 -58 16 C-57.37770508 16.0220752 -56.75541016 16.04415039 -56.11425781 16.06689453 C-39.49573984 16.47854589 -28.17002441 13.52591909 -14 5 C-11.82266692 3.75126883 -9.63231767 2.53056635 -7.4375 1.3125 C-6.63183594 0.83425781 -5.82617188 0.35601562 -4.99609375 -0.13671875 C-3 -1 -3 -1 0 0 Z " transform="translate(170,252)" style="fill: #E2E1E2;"/><path d="M0 0 C6.35293271 1.95934361 12.06227611 4.96305048 17.93334961 8.02246094 C19.82087667 9.00435757 21.71384221 9.97514967 23.60742188 10.9453125 C24.80763385 11.56704821 26.00751589 12.18942137 27.20703125 12.8125 C28.2947583 13.37582031 29.38248535 13.93914062 30.50317383 14.51953125 C33 16 33 16 34 18 C33.21826172 19.72973633 33.21826172 19.72973633 31.9296875 21.83203125 C31.45128418 22.62101807 30.97288086 23.41000488 30.47998047 24.22290039 C29.95033691 25.07746826 29.42069336 25.93203613 28.875 26.8125 C28.0708667 28.13012329 28.0708667 28.13012329 27.25048828 29.47436523 C25.50907988 32.32172161 23.75541211 35.16125873 22 38 C20.79152167 39.96345243 19.58318774 41.92699374 18.375 43.890625 C9.79440604 57.80839094 9.79440604 57.80839094 7 62 C-0.93835649 63.7539196 -12.71986089 64.34775148 -20.24023438 61.00390625 C-24.21350131 58.29313327 -27.03301146 54.74210146 -30 51 C-31.38358375 49.73370969 -32.79521011 48.49629961 -34.25 47.3125 C-35.1575 46.549375 -36.065 45.78625 -37 45 C-36.57003898 40.53915445 -33.4646274 37.98516766 -30.5 34.9375 C-26.68994418 30.92481158 -23.01379904 26.89429805 -19.5625 22.5625 C-15.3977377 17.36420294 -10.9181449 12.51431432 -6.34008789 7.68188477 C-5.80633545 7.11655029 -5.27258301 6.55121582 -4.72265625 5.96875 C-4.24578369 5.46794922 -3.76891113 4.96714844 -3.27758789 4.45117188 C-1.78165971 2.81708088 -1.78165971 2.81708088 0 0 Z " transform="translate(245,251)" style="fill: #C4C3C4;"/><path d="M0 0 C6.66788509 4.4628617 10.32018837 10.16611212 12 18 C12.80396325 25.87883984 10.13376193 33.73272049 5.25 39.9375 C-0.19347072 45.69873677 -7.35470472 48.08049901 -15.125 48.375 C-22.12343787 48.29090662 -27.61614466 46.00549177 -32.8515625 41.35546875 C-39.59382979 33.99875838 -40.58181377 27.42163918 -40.33984375 17.59765625 C-39.68658454 10.68211911 -37.2148983 6.90806276 -32.25 2.1875 C-22.56500242 -5.62470799 -10.72669087 -6.52929009 0 0 Z " transform="translate(388,142)" style="fill: #7C57D8;"/><path d="M0 0 C0.70125 0.45890625 1.4025 0.9178125 2.125 1.390625 C10.97960218 7.11724272 18.74967302 11.2449236 29 13.75 C31.97 14.4925 34.94 15.235 38 16 C38 24.91 38 33.82 38 43 C45.59 43 53.18 43 61 43 C57.62716686 48.62138857 57.62716686 48.62138857 55.07421875 51.3046875 C54.52443359 51.88863281 53.97464844 52.47257812 53.40820312 53.07421875 C52.84037109 53.66847656 52.27253906 54.26273437 51.6875 54.875 C47.32117981 59.47911515 43.09692342 64.15311026 39 69 C35.02879992 67.18480495 32.54504892 64.60604907 29.6875 61.375 C28.95358032 60.55878174 28.95358032 60.55878174 28.20483398 59.72607422 C26.7967346 58.15635154 25.3970987 56.57951234 24 55 C23.38898438 54.31421875 22.77796875 53.6284375 22.1484375 52.921875 C20.41725619 50.96043804 18.70623503 48.98319903 17 47 C16.54447754 46.47083984 16.08895508 45.94167969 15.61962891 45.39648438 C8.28676712 36.8736917 8.28676712 36.8736917 6.42358398 34.62451172 C4.84680673 32.76061714 4.84680673 32.76061714 2.15234375 30.4375 C-1.7629313 25.7238588 -0.50697672 18.86954323 -0.3125 13.125 C-0.28994141 11.86429688 -0.26738281 10.60359375 -0.24414062 9.3046875 C-0.18537581 6.20190501 -0.10325851 3.10156801 0 0 Z " transform="translate(169,225)" style="fill: #FEC0A6;"/><path d="M0 0 C5.72792555 2.44361599 9.28668585 7.26436397 12.55859375 12.4140625 C14.6434555 18.66864774 14.77550957 26.69694728 12.05859375 32.7890625 C8.54943147 38.68345609 3.09808676 43.33865454 -3.44140625 45.4140625 C-10.77723279 46.2842433 -17.45419162 46.03644971 -23.44140625 41.4140625 C-28.20364345 36.89700979 -31.9690275 32.51823627 -32.7421875 25.80078125 C-32.77785242 17.5859619 -31.88833147 11.70502418 -26.12890625 5.6015625 C-18.87899405 -1.5131532 -9.62169002 -2.3092056 0 0 Z " transform="translate(216.44140625,376.5859375)" style="fill: #C3C3C3;"/><path d="M0 0 C1.6678314 26.90482901 1.6678314 26.90482901 -4.1875 33.875 C-6.54296875 36.0546875 -6.54296875 36.0546875 -9 38 C-9.6703125 38.90363281 -10.340625 39.80726563 -11.03125 40.73828125 C-15.74755438 44.3313605 -20.5723685 43.52889917 -26.3125 43.3125 C-30.169375 43.209375 -34.02625 43.10625 -38 43 C-38 34.09 -38 25.18 -38 16 C-35.6075 15.443125 -33.215 14.88625 -30.75 14.3125 C-20.19723521 11.71651771 -11.05216908 8.46030144 -2.64453125 1.35546875 C-1 0 -1 0 0 0 Z " transform="translate(245,225)" style="fill: #F8A891;"/><path d="M0 0 C3.7229703 2.6592645 6.55543557 5.73587115 8.625 9.875 C9.1322965 15.43031248 9.38760422 20.29330236 6.9375 25.375 C2.05636871 30.65189869 -1.33208967 33.04238235 -8.5 33.375 C-14.6447123 33.3477809 -17.58979233 32.10300254 -21.88671875 27.796875 C-26.19649669 22.23149246 -26.11906341 16.72773214 -25.375 9.875 C-20.29994479 -0.65104043 -10.74349309 -3.58116436 0 0 Z " transform="translate(445.375,267.125)" style="fill: #7C57D8;"/><path d="M0 0 C0 15.18 0 30.36 0 46 C-9.90288481 44.89967947 -12.97296414 43.34495975 -19.375 36.4375 C-23.67972531 29.98041204 -24.00785361 23.26832566 -22.5703125 15.75390625 C-20.46128844 9.07533005 -15.76267852 4.78422987 -10 1.0625 C-7 0 -7 0 0 0 Z " transform="translate(207,376)" style="fill: #E0E0E0;"/><path d="M0 0 C3.70390021 2.02666238 5.65363011 3.48044516 8 7 C8.61414419 11.25912987 8.43727155 14.97241187 6.75 18.9375 C4.43633869 21.66431511 2.35897841 22.7909264 -1.18359375 23.3359375 C-5.22427879 23.4059667 -7.41841295 23.35885159 -10.9375 21.1875 C-14.32148756 17.59842228 -15.55330952 15.13404487 -15.4609375 10.13671875 C-14.61684071 6.22382939 -11.9177214 3.60780798 -9 1 C-5.89046621 -0.5547669 -3.43733239 -0.28644437 0 0 Z " transform="translate(237,151)" style="fill: #434241;"/><path d="M0 0 C3.83298121 3.20900752 4.54895318 4.72598502 5 9.6875 C4.59022984 14.35887978 3.13298761 16.63772536 0.0625 20.0625 C-3.68735024 21.93742512 -7.21562317 22.02259442 -11.3125 21.25 C-14.88302209 19.31658451 -17.00701966 17.16644101 -18.3125 13.25 C-18.71359454 8.99839783 -18.57628256 6.7493027 -16.5625 2.9375 C-11.92623943 -2.60025568 -6.52345032 -3.44635111 0 0 Z " transform="translate(187.3125,152.75)" style="fill: #5C5B5B;"/><path d="M0 0 C7.59 0 15.18 0 23 0 C23 8.58 23 17.16 23 26 C19.70962086 23.36769669 17.39530987 21.51164131 14.8125 18.4375 C11.01486644 13.97758598 7.03584189 9.6985074 3.0390625 5.41796875 C1 3 1 3 0 0 Z " transform="translate(184,268)" style="fill: #FEDBC0;"/><path d="M0 0 C0 5.94 0 11.88 0 18 C-6.6 18 -13.2 18 -20 18 C-15.97836114 13.97836114 -11.91114435 10.05943619 -7.75 6.1875 C-6.79480469 5.2912793 -6.79480469 5.2912793 -5.8203125 4.37695312 C-5.21445313 3.81298828 -4.60859375 3.24902344 -3.984375 2.66796875 C-3.43491211 2.15516357 -2.88544922 1.6423584 -2.31933594 1.11401367 C-1 0 -1 0 0 0 Z " transform="translate(207,295)" style="fill: #FEFEFE;"/><path d="M0 0 C4.11866904 3.41761899 8.11313049 6.94494358 12 10.625 C13.175625 11.72714844 13.175625 11.72714844 14.375 12.8515625 C16 15 16 15 15.9375 17.2109375 C15 19 15 19 12 20 C7.87822224 18.59296743 3.9898217 16.75895365 0 15 C0 10.05 0 5.1 0 0 Z " transform="translate(389,94)" style="fill: #7F59D9;"/><path d="M0 0 C3.54853783 -0.2342724 6.61493999 -0.150714 10 1 C12.54172888 4.01830304 14.03202562 7.18090109 15 11 C14.5402832 13.15893555 14.5402832 13.15893555 14 15 C11.66265901 12.69152056 9.33081534 10.37756659 7 8.0625 C6.33226562 7.40314453 5.66453125 6.74378906 4.9765625 6.06445312 C4.34492188 5.43603516 3.71328125 4.80761719 3.0625 4.16015625 C2.47597656 3.57886963 1.88945312 2.99758301 1.28515625 2.39868164 C0 1 0 1 0 0 Z " transform="translate(135,186)" style="fill: #825BD8;"/></svg>